<svg xmlns="http://www.w3.org/2000/svg" viewBox="0 0 64 64">
  <defs>
    <linearGradient id="bg" x1="0%" y1="0%" x2="100%" y2="100%">
      <stop offset="0%" stop-color="#6ee7ff"/>
      <stop offset="50%" stop-color="#8b5cf6"/>
      <stop offset="100%" stop-color="#0ea5e9"/>
    </linearGradient>
    <linearGradient id="ring" x1="0%" y1="0%" x2="100%" y2="0%">
      <stop offset="0%" stop-color="#0ea5e9" stop-opacity="0.35"/>
      <stop offset="100%" stop-color="#a855f7" stop-opacity="0.35"/>
    </linearGradient>
  </defs>
  <rect x="4" y="4" width="56" height="56" rx="14" fill="url(#bg)" />
  <rect x="9" y="9" width="46" height="46" rx="12" fill="#05060a" opacity="0.35"/>
  <circle cx="32" cy="32" r="20" fill="none" stroke="url(#ring)" stroke-width="3" />
  <path d="M24 25c0-3 2-5 5-5h7c3 0 5 2 5 5v14c0 3-2 5-5 5h-7c-3 0-5-2-5-5z" fill="#0b1220" opacity="0.55"/>
  <path d="M25 24c0-2.2 1.6-3.6 4-3.6h6c2.4 0 4 1.4 4 3.6v16c0 2.2-1.6 3.6-4 3.6h-6c-2.4 0-4-1.4-4-3.6z" fill="#0ea5e9" opacity="0.8"/>
  <text x="32" y="38" font-size="16" font-family="Inter,Segoe UI,Arial" text-anchor="middle" font-weight="700" fill="#e2e8f0" letter-spacing="0.5">
    GM
  </text>
</svg>
